<?xml version="1.0" standalone="no"?>
<!DOCTYPE svg PUBLIC "-//W3C//DTD SVG 20010904//EN"
 "http://www.w3.org/TR/2001/REC-SVG-20010904/DTD/svg10.dtd">
<svg version="1.0" xmlns="http://www.w3.org/2000/svg"
 width="1920.000000pt" height="720.000000pt" viewBox="0 0 1920.000000 720.000000"
 preserveAspectRatio="xMidYMid meet">

<g transform="translate(0.000000,720.000000) scale(0.100000,-0.100000)"
fill="#000000" stroke="none">
<path d="M1373 6553 c-24 -2 -43 -8 -43 -14 0 -5 -15 -9 -34 -9 -19 0 -38 -4
-41 -10 -3 -5 -14 -10 -24 -10 -21 0 -71 -22 -71 -32 0 -5 -9 -8 -20 -8 -11 0
-20 -4 -20 -10 0 -5 -9 -10 -20 -10 -11 0 -20 -4 -20 -10 0 -5 -9 -10 -20 -10
-11 0 -20 -4 -20 -10 0 -5 -8 -10 -18 -10 -10 0 -24 -9 -32 -20 -8 -11 -21
-20 -28 -20 -8 0 -27 -13 -42 -30 -15 -16 -33 -30 -39 -30 -13 0 -24 -10 -118
-99 -35 -33 -63 -65 -63 -71 0 -7 -13 -25 -30 -40 -16 -15 -30 -34 -30 -42 0
-7 -9 -20 -20 -28 -11 -8 -20 -22 -20 -32 0 -10 -4 -18 -10 -18 -5 0 -10 -9
-10 -20 0 -11 -4 -20 -10 -20 -5 0 -10 -9 -10 -20 0 -11 -4 -20 -10 -20 -5 0
-10 -9 -10 -20 0 -11 -4 -20 -10 -20 -5 0 -10 -9 -10 -20 0 -11 -4 -20 -10
-20 -5 0 -10 -13 -10 -30 0 -16 -4 -30 -10 -30 -5 0 -10 -18 -10 -39 0 -23 -5
-41 -12 -43 -19 -7 -19 -4149 0 -4155 7 -3 12 -21 12 -44 0 -21 5 -39 10 -39
6 0 10 -13 10 -30 0 -16 5 -30 10 -30 6 0 10 -9 10 -20 0 -11 5 -20 10 -20 6
0 10 -9 10 -20 0 -11 5 -20 10 -20 6 0 10 -9 10 -20 0 -11 5 -20 10 -20 6 0
10 -9 10 -20 0 -11 5 -20 10 -20 6 0 10 -8 10 -18 0 -10 9 -24 20 -32 11 -8
20 -21 20 -28 0 -8 14 -27 30 -42 16 -15 30 -33 30 -39 0 -15 166 -181 181
-181 6 0 24 -13 39 -30 15 -16 35 -30 43 -30 9 0 17 -4 19 -8 5 -12 230 -122
250 -122 9 0 20 -4 23 -10 3 -5 21 -10 40 -10 18 0 35 -6 37 -12 4 -10 833
-13 4103 -13 3270 0 4099 3 4102 13 3 7 21 12 44 12 21 0 39 5 39 10 0 6 14
10 30 10 17 0 30 5 30 10 0 6 9 10 20 10 11 0 20 5 20 10 0 6 9 10 20 10 11 0
20 5 20 10 0 6 9 10 20 10 11 0 20 5 20 10 0 6 9 10 20 10 11 0 20 5 20 10 0
6 8 10 19 10 10 0 24 7 31 15 7 8 19 15 27 15 8 0 28 13 43 30 15 16 33 30 39
30 15 0 161 147 154 154 -4 3 1 6 10 6 10 0 17 8 17 18 0 22 32 62 50 62 7 0
10 8 8 18 -5 19 13 42 33 42 6 0 9 8 6 20 -3 14 0 20 10 20 10 0 14 6 10 20
-3 13 0 20 10 20 10 0 12 6 8 20 -5 14 -2 20 10 20 12 0 15 6 10 20 -5 14 -2
20 10 20 12 0 15 6 10 20 -5 15 -2 20 11 20 13 0 15 6 11 30 -5 23 -3 30 10
30 13 0 15 8 10 40 -3 25 -1 40 7 43 16 5 16 4149 0 4154 -8 3 -10 18 -7 43 5
32 3 40 -10 40 -13 0 -15 7 -11 30 5 24 3 30 -10 30 -13 0 -16 5 -11 20 4 14
2 20 -8 20 -10 0 -13 7 -10 20 4 14 0 20 -10 20 -10 0 -13 6 -10 20 4 14 0 20
-10 20 -10 0 -13 6 -10 20 4 14 0 20 -10 20 -10 0 -13 6 -10 20 3 12 0 20 -6
20 -20 0 -38 23 -33 42 3 12 -1 18 -12 18 -10 0 -14 5 -11 10 3 6 -1 10 -10
10 -9 0 -13 5 -10 10 3 6 1 10 -4 10 -6 0 -11 9 -11 20 0 11 -7 20 -16 20 -8
0 -12 5 -9 10 3 6 -2 10 -11 10 -10 0 -14 3 -11 6 4 4 -12 23 -35 43 -23 20
-52 46 -64 59 -13 12 -28 22 -35 22 -6 0 -24 14 -39 30 -15 17 -34 30 -42 30
-7 0 -20 9 -28 20 -8 11 -22 20 -32 20 -10 0 -18 5 -18 10 0 6 -9 10 -20 10
-11 0 -20 5 -20 10 0 6 -9 10 -20 10 -11 0 -20 5 -20 10 0 6 -9 10 -20 10 -11
0 -20 5 -20 10 0 6 -9 10 -20 10 -11 0 -20 5 -20 10 0 6 -13 10 -30 10 -16 0
-30 5 -30 10 0 6 -18 10 -39 10 -23 0 -41 5 -43 13 -4 9 -826 12 -4064 13
-2232 0 -4078 -1 -4101 -3z m2077 -1251 c25 -7 79 -18 120 -26 80 -16 187 -45
233 -64 16 -7 31 -12 35 -12 3 0 42 -16 87 -36 44 -20 91 -42 105 -48 14 -6
27 -14 30 -17 3 -3 34 -21 70 -40 36 -19 74 -42 84 -51 11 -10 26 -18 33 -18
7 0 13 -4 13 -8 0 -5 12 -15 28 -23 15 -8 41 -26 57 -41 17 -16 35 -28 41 -28
19 0 48 -72 46 -113 0 -24 -10 -49 -27 -70 -38 -47 -38 -48 -73 -99 -18 -26
-32 -49 -32 -52 0 -3 -9 -16 -20 -28 -10 -13 -20 -27 -22 -33 -1 -5 -15 -23
-30 -39 -16 -16 -28 -33 -28 -38 0 -5 -9 -18 -20 -30 -11 -12 -20 -28 -20 -35
0 -7 -4 -13 -8 -13 -5 0 -15 -12 -23 -27 -8 -15 -26 -41 -41 -57 -16 -16 -28
-33 -28 -38 0 -29 -77 -60 -118 -48 -30 8 -69 28 -88 46 -20 18 -256 132 -309
149 -27 9 -59 20 -70 25 -43 19 -203 52 -290 59 -114 10 -299 -2 -346 -22 -20
-8 -53 -31 -73 -51 -30 -31 -36 -43 -36 -81 0 -32 5 -47 18 -54 9 -5 15 -13
13 -17 -2 -5 5 -13 15 -19 11 -5 21 -13 24 -17 13 -17 166 -79 264 -107 58
-17 179 -44 268 -61 158 -29 456 -102 490 -121 10 -5 27 -9 38 -9 11 0 20 -4
20 -10 0 -5 6 -10 13 -10 17 0 178 -81 201 -102 11 -10 24 -18 28 -18 5 0 23
-13 41 -30 18 -16 36 -30 40 -30 11 0 147 -139 147 -150 0 -5 6 -15 13 -22 39
-42 114 -182 140 -263 67 -209 60 -495 -18 -715 -23 -67 -78 -179 -93 -189 -4
-3 -19 -22 -32 -41 -28 -42 -164 -180 -177 -180 -5 0 -18 -8 -29 -18 -33 -31
-198 -111 -291 -141 -80 -26 -135 -38 -318 -71 -95 -18 -378 -24 -495 -11
-186 20 -418 63 -485 91 -11 4 -40 14 -65 21 -25 7 -49 16 -55 19 -5 4 -26 12
-45 20 -50 18 -245 116 -315 158 -64 38 -94 59 -198 135 -36 26 -69 47 -74 47
-15 0 -33 54 -33 102 0 46 16 81 58 126 6 7 12 17 12 21 0 4 11 21 25 37 14
16 25 35 25 42 0 6 4 12 8 12 5 0 15 12 23 28 8 15 20 33 26 40 7 7 30 39 50
70 21 31 46 66 55 76 10 11 18 26 18 33 0 7 4 13 8 13 5 0 15 12 23 27 8 16
28 43 46 60 28 29 39 33 83 33 49 0 79 -11 108 -38 8 -7 32 -21 53 -30 22 -9
39 -20 39 -24 0 -5 9 -8 20 -8 11 0 20 -4 20 -9 0 -11 201 -111 224 -111 9 0
16 -4 16 -10 0 -5 7 -10 15 -10 8 0 23 -4 33 -10 25 -14 160 -57 244 -77 101
-25 368 -24 449 0 118 37 179 103 179 197 0 31 -6 55 -19 72 -28 34 -124 79
-187 85 -30 3 -54 9 -54 14 0 4 -26 10 -57 12 -32 3 -83 10 -113 16 -30 6 -80
15 -110 21 -66 11 -147 26 -215 40 -27 6 -68 13 -90 16 -22 4 -44 10 -50 14
-5 4 -37 13 -70 20 -33 7 -64 17 -70 22 -5 4 -16 8 -25 8 -9 0 -35 9 -58 20
-22 11 -48 20 -56 20 -8 0 -16 3 -18 8 -1 4 -39 24 -83 45 -74 36 -138 75
-210 130 -37 28 -145 136 -145 145 0 4 -11 19 -24 33 -31 33 -126 227 -126
256 0 12 -4 24 -9 27 -31 20 -33 474 -2 551 5 11 14 38 20 60 38 126 117 250
230 365 73 73 194 162 260 191 17 8 31 17 31 21 0 5 7 8 15 8 9 0 35 9 57 20
23 11 50 20 59 20 10 0 20 4 23 9 3 5 20 11 38 14 18 3 56 11 83 16 28 6 95
18 150 26 55 9 105 18 110 20 22 9 482 -2 525 -13z m5611 -68 l34 -35 3 -338
3 -337 -23 -34 c-13 -19 -35 -40 -48 -47 -19 -10 -192 -13 -760 -13 -664 0
-738 -2 -759 -16 -38 -27 -51 -74 -51 -186 0 -115 16 -163 60 -185 19 -10 174
-13 665 -13 683 0 669 1 707 -50 17 -23 18 -52 21 -378 1 -193 -1 -352 -5
-352 -5 0 -8 -7 -8 -16 0 -8 -6 -21 -12 -27 -37 -35 -75 -37 -724 -37 l-640 0
-30 -31 c-29 -30 -29 -31 -29 -154 0 -123 0 -124 29 -154 l30 -31 729 0 c508
0 741 -3 767 -11 29 -9 42 -20 59 -55 20 -43 21 -58 21 -370 0 -346 -1 -355
-50 -399 -22 -20 -37 -20 -1220 -20 l-1199 0 -35 34 -36 35 0 1593 0 1594 32
34 31 35 1202 0 1201 0 35 -36z"/>
<path d="M15100 3510 l0 -2380 110 0 110 0 0 2380 0 2380 -110 0 -110 0 0
-2380z"/>
<path d="M17260 5310 c0 -6 -45 -10 -114 -10 -66 0 -117 -4 -121 -10 -3 -5
-30 -10 -60 -10 -30 0 -57 -4 -60 -10 -3 -5 -26 -10 -50 -10 -24 0 -47 -4 -50
-10 -3 -5 -21 -10 -40 -10 -19 0 -37 -4 -40 -10 -3 -5 -15 -10 -25 -10 -11 0
-35 -9 -55 -20 -20 -11 -42 -20 -49 -20 -17 0 -74 -28 -81 -41 -4 -5 -25 -18
-49 -29 -23 -10 -49 -26 -56 -35 -7 -8 -16 -15 -21 -15 -13 0 -219 -203 -219
-216 0 -6 -6 -17 -14 -24 -19 -15 -106 -190 -106 -212 0 -9 -4 -20 -10 -23 -5
-3 -10 -26 -10 -50 0 -24 -4 -47 -10 -50 -5 -3 -10 -39 -10 -80 0 -41 -4 -77
-10 -80 -5 -3 -10 -42 -10 -85 0 -43 5 -82 10 -85 6 -3 10 -39 10 -80 0 -41 5
-77 10 -80 6 -3 10 -17 10 -30 0 -13 5 -27 10 -30 6 -3 10 -15 10 -25 0 -11 9
-35 20 -55 11 -20 20 -43 20 -53 0 -10 9 -24 20 -32 11 -8 20 -21 20 -30 0 -9
9 -22 20 -30 11 -8 20 -20 20 -27 0 -17 186 -203 203 -203 7 0 19 -9 27 -20 8
-11 22 -20 32 -20 10 0 18 -4 18 -10 0 -5 6 -10 14 -10 7 0 19 -7 26 -15 14
-17 67 -45 86 -45 6 0 38 -13 69 -30 31 -16 65 -30 75 -30 11 0 22 -4 25 -10
3 -5 17 -10 30 -10 13 0 27 -5 30 -10 3 -5 17 -10 30 -10 13 0 27 -4 30 -10 3
-5 21 -10 40 -10 19 0 37 -4 40 -10 3 -5 26 -10 50 -10 24 0 47 -4 50 -10 3
-5 26 -10 50 -10 24 0 47 -4 50 -10 3 -5 26 -10 50 -10 24 0 47 -4 50 -10 3
-5 30 -10 60 -10 30 0 56 -4 59 -9 3 -5 49 -12 101 -16 52 -4 97 -11 101 -16
3 -5 20 -9 39 -9 19 0 37 -4 40 -10 3 -5 15 -10 26 -10 62 0 183 -130 150
-163 -6 -6 -11 -20 -11 -32 0 -12 -19 -38 -42 -60 -50 -47 -80 -65 -107 -65
-11 0 -23 -4 -26 -10 -3 -5 -35 -10 -70 -10 -35 0 -67 -4 -70 -10 -8 -13 -132
-13 -140 0 -3 6 -35 10 -70 10 -35 0 -67 5 -70 10 -3 6 -22 10 -41 10 -19 0
-34 5 -34 10 0 6 -18 10 -40 10 -22 0 -40 5 -40 10 0 6 -13 10 -30 10 -16 0
-30 5 -30 10 0 6 -9 10 -20 10 -11 0 -20 5 -20 10 0 6 -13 10 -30 10 -16 0
-30 5 -30 10 0 6 -9 10 -19 10 -11 0 -21 4 -23 8 -1 4 -56 34 -121 66 -64 32
-120 62 -123 67 -3 5 -24 18 -48 29 -23 10 -49 26 -56 35 -9 11 -31 15 -78 15
-58 0 -69 -3 -94 -27 -15 -15 -28 -32 -28 -38 0 -7 -9 -20 -20 -30 -11 -10
-20 -23 -20 -30 0 -6 -13 -24 -30 -40 -16 -16 -30 -34 -30 -40 0 -7 -9 -20
-20 -30 -11 -10 -20 -24 -20 -31 0 -8 -9 -19 -20 -26 -11 -7 -20 -21 -20 -30
0 -10 -9 -23 -20 -30 -11 -7 -20 -20 -20 -30 0 -9 -13 -28 -30 -41 -16 -14
-30 -33 -30 -41 0 -9 -9 -21 -20 -28 -11 -7 -20 -21 -20 -30 0 -10 -9 -23 -20
-30 -17 -11 -20 -24 -20 -75 0 -60 1 -64 43 -102 23 -22 47 -41 53 -41 5 0 23
-13 39 -30 16 -17 34 -30 40 -30 7 0 20 -9 30 -20 10 -11 24 -20 30 -20 7 0
18 -7 25 -15 7 -8 37 -27 69 -41 31 -15 64 -34 73 -42 23 -19 108 -62 124 -62
6 0 38 -13 69 -30 31 -17 65 -30 75 -30 11 0 22 -4 25 -10 3 -5 17 -10 30 -10
13 0 27 -4 30 -10 3 -5 17 -10 30 -10 13 0 27 -5 30 -10 3 -5 21 -10 40 -10
19 0 37 -5 40 -10 3 -5 21 -10 40 -10 19 0 37 -5 40 -10 3 -6 31 -10 61 -10
30 0 54 -4 54 -10 0 -6 30 -10 70 -10 40 0 70 -4 70 -10 0 -6 88 -10 245 -10
157 0 245 4 245 10 0 6 33 10 80 10 47 0 80 4 80 10 0 6 20 10 44 10 25 0 48
5 51 10 3 6 21 10 40 10 19 0 37 5 40 10 3 5 17 10 30 10 13 0 27 4 30 10 3 5
14 10 23 10 22 0 237 107 253 126 6 8 17 14 23 14 15 0 196 182 196 196 0 7 6
17 14 24 19 15 106 190 106 212 0 9 5 20 10 23 6 3 10 17 10 30 0 13 5 27 10
30 6 3 10 31 10 61 0 30 5 54 10 54 6 0 10 67 10 180 0 113 -4 180 -10 180 -5
0 -10 24 -10 54 0 30 -4 58 -10 61 -5 3 -10 17 -10 30 0 13 -4 27 -10 30 -5 3
-10 17 -10 31 0 13 -4 24 -10 24 -5 0 -10 9 -10 20 0 11 -4 20 -10 20 -5 0
-10 8 -10 18 0 10 -9 24 -20 32 -11 8 -20 21 -20 30 0 9 -9 22 -20 30 -11 8
-20 20 -20 27 0 14 -203 223 -218 223 -5 0 -17 9 -27 20 -10 11 -24 20 -30 20
-7 0 -18 7 -25 15 -13 16 -149 85 -167 85 -7 0 -28 9 -48 20 -20 11 -44 20
-55 20 -10 0 -21 4 -24 9 -3 4 -33 11 -65 15 -33 4 -63 11 -66 16 -4 6 -21 10
-40 10 -19 0 -37 5 -40 10 -3 6 -21 10 -40 10 -19 0 -37 5 -40 10 -3 6 -30 10
-60 10 -30 0 -57 5 -60 10 -3 6 -26 10 -50 10 -24 0 -47 5 -50 10 -3 6 -26 10
-51 10 -24 0 -44 5 -44 10 0 6 -18 10 -40 10 -22 0 -40 5 -40 10 0 6 -13 10
-30 10 -16 0 -30 5 -30 10 0 6 -13 10 -30 10 -16 0 -30 5 -30 10 0 6 -8 10
-18 10 -29 0 -152 66 -188 101 -49 48 -48 96 4 144 20 19 43 35 50 35 6 0 12
5 12 10 0 6 18 10 40 10 22 0 40 5 40 10 0 6 61 10 164 10 99 0 167 -4 171
-10 3 -5 26 -10 50 -10 24 0 47 -4 50 -10 3 -5 21 -10 40 -10 19 0 37 -4 40
-10 3 -5 17 -10 31 -10 13 0 24 -4 24 -10 0 -5 14 -10 30 -10 17 0 30 -4 30
-10 0 -5 9 -10 20 -10 11 0 20 -4 20 -10 0 -5 14 -10 30 -10 17 0 30 -4 30
-10 0 -5 9 -10 20 -10 11 0 20 -4 20 -10 0 -5 9 -10 20 -10 11 0 20 -4 20 -10
0 -5 9 -10 20 -10 11 0 20 -4 20 -10 0 -5 8 -10 18 -10 10 0 24 -9 32 -20 8
-11 22 -20 32 -20 10 0 18 -3 18 -7 0 -16 56 -33 110 -33 49 0 60 4 83 28 15
16 25 31 22 34 -3 2 4 13 15 23 11 10 20 23 20 30 0 6 14 24 30 40 17 16 30
34 30 40 0 7 9 20 20 30 11 10 20 23 20 30 0 7 9 20 20 30 11 10 20 23 20 30
0 6 14 24 30 40 17 16 30 34 30 40 0 7 9 20 20 30 11 10 20 23 20 30 0 7 9 20
20 30 11 10 20 23 20 30 0 7 9 20 20 30 16 14 20 31 20 79 0 60 -2 63 -43 104
-23 23 -48 42 -53 42 -6 0 -19 9 -29 20 -10 11 -24 20 -30 20 -7 0 -18 7 -25
15 -7 9 -29 23 -49 32 -20 9 -44 23 -53 31 -26 22 -270 142 -290 142 -9 0 -20
5 -23 10 -3 6 -17 10 -30 10 -13 0 -27 5 -30 10 -3 6 -17 10 -30 10 -13 0 -27
5 -30 10 -3 6 -17 10 -30 10 -13 0 -27 5 -30 10 -3 6 -26 10 -51 10 -24 0 -44
5 -44 10 0 6 -27 10 -60 10 -33 0 -60 4 -60 10 0 6 -48 10 -125 10 -77 0 -125
4 -125 10 0 6 -27 10 -60 10 -33 0 -60 -4 -60 -10z"/>
<path d="M10913 5205 l-33 -34 0 -1596 c0 -1057 3 -1595 10 -1595 6 0 10 -7
10 -16 0 -20 24 -44 44 -44 9 0 16 -4 16 -10 0 -6 135 -10 385 -10 250 0 385
4 385 10 0 6 6 10 13 10 20 0 47 33 47 58 0 12 5 22 10 22 7 0 10 260 10 760
l0 760 23 0 c23 0 77 -47 77 -66 0 -6 9 -19 20 -29 11 -10 18 -21 15 -23 -3
-3 6 -18 21 -33 14 -15 25 -29 24 -31 -3 -7 19 -56 29 -63 6 -3 20 -25 31 -49
10 -23 26 -49 35 -56 8 -7 15 -18 15 -25 0 -7 7 -18 15 -25 9 -7 23 -29 32
-49 9 -20 25 -43 35 -52 10 -9 18 -23 18 -30 0 -8 9 -21 20 -29 11 -8 20 -22
20 -32 0 -10 5 -18 10 -18 6 0 10 -8 10 -18 0 -10 9 -24 20 -32 11 -8 20 -21
20 -30 0 -9 9 -22 20 -30 11 -8 20 -22 20 -32 0 -10 5 -18 10 -18 6 0 10 -8
10 -18 0 -10 9 -24 20 -32 11 -8 20 -21 20 -30 0 -9 9 -22 20 -30 11 -8 20
-22 20 -32 0 -10 5 -18 10 -18 6 0 10 -8 10 -18 0 -10 9 -24 20 -32 11 -8 20
-22 20 -32 0 -10 5 -18 10 -18 6 0 10 -6 10 -13 0 -8 9 -22 20 -32 11 -10 20
-24 20 -30 0 -7 7 -18 15 -25 9 -7 23 -29 32 -49 9 -20 30 -51 47 -69 26 -28
36 -32 81 -32 45 0 55 4 81 33 17 17 38 48 47 68 9 20 23 42 32 49 8 7 15 18
15 24 0 6 9 18 20 26 11 8 20 22 20 32 0 10 5 18 10 18 6 0 10 8 10 18 0 10 9
24 20 32 11 8 20 22 20 32 0 10 5 18 10 18 6 0 10 8 10 18 0 10 9 24 20 32 11
8 20 21 20 30 0 9 9 22 20 30 11 8 20 22 20 32 0 10 5 18 10 18 6 0 10 8 10
18 0 10 9 24 20 32 11 8 20 21 20 30 0 9 9 22 20 30 11 8 20 22 20 32 0 10 5
18 10 18 6 0 10 8 10 18 0 10 9 24 20 32 11 8 20 22 20 31 0 9 7 19 15 22 8 3
23 26 34 50 11 24 27 50 36 57 8 7 15 18 15 25 0 7 7 18 15 25 9 7 25 33 35
56 11 24 24 46 30 49 5 3 17 23 26 43 10 20 26 47 37 60 11 12 17 22 12 22 -5
0 4 13 20 30 16 17 25 30 20 30 -5 0 4 14 20 30 30 31 63 38 83 18 9 -9 12
-194 12 -773 l0 -761 28 -27 c15 -15 33 -27 40 -27 7 0 12 -4 12 -10 0 -6 130
-10 370 -10 386 0 386 0 438 44 l22 19 0 1609 c0 1065 -3 1608 -10 1608 -5 0
-10 7 -10 16 0 43 -8 44 -419 44 -254 0 -391 -4 -391 -10 0 -5 -5 -10 -12 -10
-16 0 -128 -110 -128 -126 0 -6 -9 -19 -20 -29 -11 -10 -20 -23 -20 -30 0 -7
-9 -20 -20 -30 -11 -10 -18 -21 -15 -25 2 -4 -7 -17 -20 -30 -13 -13 -22 -26
-20 -30 3 -4 -4 -15 -15 -25 -11 -10 -20 -23 -20 -30 0 -6 -13 -24 -30 -40
-16 -16 -30 -34 -30 -40 0 -7 -9 -20 -20 -30 -11 -10 -20 -23 -20 -30 0 -7 -9
-20 -20 -30 -11 -10 -20 -23 -20 -30 0 -7 -9 -20 -20 -30 -11 -10 -20 -24 -20
-31 0 -8 -9 -19 -20 -26 -11 -7 -20 -21 -20 -30 0 -10 -9 -23 -20 -30 -11 -7
-20 -19 -20 -26 0 -8 -13 -27 -30 -42 -16 -15 -30 -34 -30 -42 0 -7 -9 -20
-20 -28 -11 -8 -20 -21 -20 -30 0 -9 -9 -22 -20 -30 -11 -8 -20 -21 -20 -30 0
-9 -9 -22 -20 -30 -11 -8 -20 -21 -20 -30 0 -9 -9 -22 -20 -30 -11 -8 -20 -21
-20 -30 0 -9 -9 -22 -20 -30 -11 -8 -20 -21 -20 -30 0 -9 -9 -22 -20 -30 -11
-8 -20 -21 -20 -28 0 -8 -13 -27 -30 -42 -16 -15 -30 -32 -30 -37 0 -6 -9 -18
-20 -28 -11 -10 -20 -23 -20 -30 0 -14 -62 -75 -76 -75 -13 0 -74 63 -74 76 0
6 -9 19 -20 29 -11 10 -20 22 -20 28 0 5 -13 22 -30 37 -16 15 -30 34 -30 42
0 7 -9 20 -20 28 -11 8 -20 21 -20 30 0 9 -9 22 -20 30 -11 8 -20 21 -20 30 0
9 -9 22 -20 30 -11 8 -20 21 -20 30 0 9 -9 22 -20 30 -11 8 -20 21 -20 30 0 9
-9 22 -20 30 -11 8 -20 21 -20 30 0 9 -9 22 -20 30 -11 8 -20 21 -20 28 0 8
-13 27 -30 42 -16 15 -30 34 -30 42 0 7 -9 20 -20 28 -11 8 -20 21 -20 30 0 8
-9 21 -20 28 -11 7 -20 18 -20 26 0 7 -9 21 -20 31 -11 10 -20 23 -20 30 0 7
-9 20 -20 30 -11 10 -20 23 -20 30 0 7 -9 20 -20 30 -11 10 -20 23 -20 30 0 6
-13 24 -30 40 -16 16 -30 34 -30 40 0 7 -9 20 -20 30 -11 10 -17 21 -15 25 2
4 -4 15 -15 25 -11 10 -20 23 -20 30 0 7 -9 20 -20 30 -11 10 -20 23 -20 30 0
7 -9 20 -20 30 -11 10 -20 23 -20 28 0 6 -7 19 -17 29 -9 10 -21 28 -27 40 -6
12 -29 31 -51 43 -22 11 -41 23 -43 28 -2 4 -175 7 -385 6 l-382 0 -32 -34z"/>
</g>
</svg>
