<svg xmlns="http://www.w3.org/2000/svg" viewBox="0 0 32 32" fill="none">
  <defs>
    <linearGradient id="g" x1="0" y1="0" x2="32" y2="32" gradientUnits="userSpaceOnUse">
      <stop stop-color="#00D4FF"/>
      <stop offset="1" stop-color="#7C3AED"/>
    </linearGradient>
  </defs>
  <rect width="32" height="32" rx="8" fill="url(#g)"/>
  <path d="M6 10.5C6 9.1 7.1 8 8.5 8h3C12.9 8 14 9.1 14 10.5S12.9 13 11.5 13H10c-1.1 0-2 .9-2 2s.9 2 2 2h1.5C12.9 17 14 18.1 14 19.5S12.9 22 11.5 22h-3C7.1 22 6 20.9 6 19.5" stroke="white" stroke-width="2" stroke-linecap="round"/>
  <path d="M18 8h3c1.7 0 3 1.5 3 3.3 0 1.2-.5 2.2-1.3 2.8l1.8 4.9c.2.5-.2 1-.7 1H23c-.4 0-.7-.2-.9-.6L20.5 16H20v3.5c0 .8-.7 1.5-1.5 1.5H18V8z" fill="white"/>
</svg>
